<svg xmlns="http://www.w3.org/2000/svg" width="100" height="50" xmlns:v="https://vecta.io/nano"><path fill="#0096ff" d="M30 37.08H20v-.009l-.009.009H12.92v-7.071l.009-.009h-.009V20h.009l-9.142-9.142 7.071-7.071L20 12.929V0h10v12.929l9.142-9.142 7.071 7.071L37.071 20H50v10H37.071l9.142 9.142-7.071 7.071L30 37.071z"/><path d="M30 50H20V37.071l-9.142 9.142-7.071-7.071L12.929 30H0V20h30v30zm30.135-33.964c1.408 0 2.432-.314 3.071-.942s.96-1.382.96-2.262c0-1.151-.621-2.107-1.862-2.868l-.606-.35-.706-.435-.571-.342c-.461-.257-.842-.539-1.141-.845s-.449-.693-.449-1.159.195-.866.585-1.199.899-.499 1.527-.499c.79 0 1.6.162 2.433.485V4.357A7.78 7.78 0 0 0 61.026 4c-1.256 0-2.181.291-2.775.874a2.9 2.9 0 0 0-.892 2.158c0 1.165.663 2.14 1.99 2.925l.756.435.749.428c.709.414 1.193.793 1.452 1.138s.389.715.389 1.109c0 .338-.094.65-.282.938s-.465.508-.831.66-.749.228-1.149.228c-.956 0-2.019-.278-3.189-.835v1.391c.661.238 1.196.395 1.605.471a7.01 7.01 0 0 0 1.284.114h0zm7.448-.342v-4.766a5.5 5.5 0 0 1 1.355-1.702c.547-.454 1.061-.681 1.541-.681.238 0 .458.081.66.243a1.23 1.23 0 0 1 .417.617c.076.25.114.769.114 1.559v4.73h1.363v-4.566c0-1.213-.08-2.026-.239-2.44s-.436-.749-.831-1.006-.835-.385-1.32-.385c-.552 0-1.102.178-1.652.535s-1.019.849-1.409 1.477V7.524H66.22v8.169h1.363 0zm10.994.228c1.165 0 2.099-.409 2.8-1.227s1.052-1.848 1.052-3.089-.351-2.276-1.052-3.089-1.635-1.22-2.8-1.22-2.107.407-2.811 1.22-1.056 1.843-1.056 3.089.352 2.271 1.056 3.089 1.641 1.227 2.811 1.227h0zm0-1.134c-.732 0-1.314-.283-1.744-.849s-.646-1.344-.646-2.333.215-1.76.646-2.326 1.012-.849 1.744-.849a2.06 2.06 0 0 1 1.73.849c.43.566.646 1.341.646 2.326s-.215 1.767-.646 2.333a2.06 2.06 0 0 1-1.73.849zm7.291.906l1.355-5.265.228-1.149h.036l.25 1.156 1.57 5.258h1.27l1.327-8.169h-1.049l-.785 4.973-.164 1.156-.257-1.156-1.47-4.973h-1.22l-1.306 4.973-.2 1.156-.2-1.156-.778-4.973h-1.263l1.327 8.169h1.327 0zM61.776 31.018c.671 0 1.432-.157 2.283-.471v-1.341c-.79.452-1.57.678-2.34.678-.585 0-1.115-.194-1.591-.581s-.868-.971-1.177-1.751-.464-1.631-.464-2.554c0-.904.149-1.742.446-2.515s.688-1.36 1.174-1.762 1.023-.603 1.612-.603c.775 0 1.555.228 2.34.685v-1.348c-.851-.319-1.612-.478-2.283-.478-.899 0-1.722.241-2.468.724s-1.325 1.193-1.734 2.13-.614 1.993-.614 3.168c0 1.184.207 2.246.621 3.185s.994 1.647 1.741 2.122 1.565.713 2.454.713h0zm6.499-.342v-4.744c.461-.804.937-1.405 1.427-1.805s.987-.599 1.491-.599c.133 0 .314.019.542.057v1.869h1.313v-2.946c-.495-.152-.989-.228-1.484-.228-.671 0-1.281.166-1.83.499s-1.036.837-1.459 1.512v-1.784h-1.363v8.169h1.363 0zm9.203.228c.485 0 1.019-.174 1.602-.521s1.083-.861 1.502-1.541c.062.775.145 1.386.25 1.834h1.42c-.204-.614-.307-1.413-.307-2.397v-5.772h-1.363l-.357-.036-1.17-.086c-.889 0-1.637.216-2.244.649s-1.089 1.02-1.448 1.762-.539 1.586-.539 2.533c0 1.203.271 2.1.813 2.69s1.156.885 1.841.885h0zm.321-1.306c-.39 0-.737-.206-1.042-.617s-.457-1.021-.457-1.83c0-1.118.279-2.001.838-2.65s1.257-.974 2.094-.974c.414 0 .863.064 1.348.193v3.503c-.409.728-.869 1.306-1.38 1.734s-.979.642-1.402.642h0zm9.71 1.306c1.199 0 2.069-.228 2.611-.685a2.18 2.18 0 0 0 .813-1.748c0-.537-.169-.987-.507-1.348s-.937-.697-1.784-1.006l-.92-.335c-.628-.228-1.082-.43-1.363-.606s-.421-.411-.421-.706.162-.551.485-.753.773-.303 1.348-.303c.79 0 1.634.159 2.533.478v-1.234a8 8 0 0 0-2.476-.378c-1.17 0-2.014.216-2.533.649s-.778.987-.778 1.662c0 .476.133.88.4 1.213s.906.704 1.919 1.099l.942.371.471.193c.561.228.913.421 1.056.578s.207.345.207.564c0 .333-.151.61-.453.831s-.795.332-1.48.332c-.428 0-.946-.073-1.555-.218s-1.187-.396-1.734-.753v1.448c1.103.438 2.176.656 3.217.656zm7.041-.228V25.91a5.5 5.5 0 0 1 1.355-1.702c.547-.454 1.061-.681 1.541-.681.238 0 .458.081.66.243a1.23 1.23 0 0 1 .417.617c.076.25.114.769.114 1.559v4.73H100v-4.593l-.068-1.771c-.045-.29-.13-.564-.253-.82-.147-.338-.413-.624-.795-.86s-.807-.353-1.273-.353c-.552 0-1.102.178-1.652.535s-1.019.849-1.409 1.477v-5.422h-1.363v11.807h1.363 0zM59.921 45.658c1.241 0 2.154-.231 2.739-.692s1.037-1.12 1.355-1.976.478-1.85.478-2.982c0-1.194-.151-2.227-.453-3.1s-.754-1.524-1.355-1.955-1.523-.646-2.764-.646h-2.69v11.351h2.69 0zm-.228-1.249h-.985v-8.961h1.106c.913 0 1.569.157 1.969.471s.706.763.92 1.348.321 1.422.321 2.511c0 1.108-.092 1.979-.275 2.611s-.487 1.127-.913 1.484-1.14.535-2.144.535zm7.056 1.249l.763-2.497h3.995l.778 2.497h1.555l-3.517-11.351h-1.498l-3.496 11.351h1.42zm4.43-3.631h-3.31l1.334-4.309.285-1.142.321 1.142 1.37 4.309h0zM78.569 46c1.289 0 2.272-.542 2.95-1.627s1.017-2.549 1.017-4.395c0-1.836-.339-3.297-1.017-4.384s-1.661-1.63-2.95-1.63-2.273.543-2.954 1.63-1.02 2.548-1.02 4.384c0 1.845.34 3.31 1.02 4.395S77.28 46 78.569 46h0zm0-1.142c-.713 0-1.308-.403-1.784-1.209s-.713-2.03-.713-3.671.238-2.858.713-3.667 1.07-1.213 1.784-1.213 1.301.404 1.776 1.213.713 2.031.713 3.667-.238 2.864-.713 3.671-1.068 1.209-1.776 1.209z" fill="#95d6d0"/></svg>