<svg width="5000" height="2500" xmlns="http://www.w3.org/2000/svg"><g fill="none" fill-rule="evenodd"><path d="M1500 1854h-500v-.447l-.447.447H646v-353.555l.445-.445H646v-500h.446L189.34 542.893 542.893 189.34 1000 646.446V0h500v646.445l457.107-457.105 353.553 353.553L1853.553 1000H2500v500h-646.446l457.106 457.107-353.553 353.553L1500 1853.554v.446z" fill="#0096FF"/><path d="M1500 2500h-500v-646.448L542.893 2310.66 189.34 1957.107 646.445 1500H0v-500h1500v1500zM3006.734 801.784c70.39 0 121.577-15.696 153.561-47.087 31.985-31.391 47.977-69.085 47.977-113.08 0-57.55-31.033-105.35-93.1-143.4l-30.32-17.48-35.314-21.76-28.536-17.122c-23.067-12.842-42.091-26.932-57.073-42.271-14.982-15.34-22.472-34.661-22.472-57.967 0-23.305 9.75-43.282 29.25-59.929 19.5-16.646 44.944-24.97 76.334-24.97 39.476 0 80.021 8.086 121.637 24.257v-63.14c-37.811-11.89-76.93-17.835-117.356-17.835-62.78 0-109.033 14.566-138.758 43.698-29.726 29.132-44.589 65.101-44.589 107.907 0 58.264 33.174 107.016 99.521 146.255l37.81 21.76 37.455 21.403c35.432 20.69 59.629 39.655 72.59 56.896 12.96 17.242 19.44 35.731 19.44 55.47 0 16.884-4.697 32.52-14.09 46.908-9.393 14.388-23.245 25.387-41.556 32.997-18.311 7.61-37.454 11.415-57.43 11.415-47.798 0-100.947-13.912-159.447-41.736v69.56c33.055 11.89 59.808 19.738 80.259 23.543 20.45 3.805 41.853 5.708 64.207 5.708zm372.4-17.123V546.373c17.835-34.007 40.426-62.366 67.773-85.077 27.348-22.711 53.03-34.067 77.049-34.067 11.89 0 22.888 4.043 32.995 12.129 10.106 8.086 17.062 18.37 20.867 30.856 3.805 12.485 5.707 38.466 5.707 77.943v236.504h68.13v-228.3c0-60.642-3.982-101.307-11.949-121.997-7.966-20.69-21.818-37.456-41.556-50.297-19.737-12.842-41.734-19.263-65.99-19.263-27.585 0-55.111 8.918-82.577 26.754-27.467 17.836-50.95 42.45-70.45 73.84v-89.18h-68.13v408.443h68.13zm549.682 11.415c58.261 0 104.93-20.452 140.006-61.355 35.076-40.904 52.614-92.39 52.614-154.46 0-62.306-17.538-113.793-52.614-154.458-35.076-40.666-81.745-61-140.006-61-58.5 0-105.347 20.334-140.542 61-35.195 40.665-52.792 92.152-52.792 154.459 0 62.069 17.597 113.555 52.792 154.459 35.195 40.903 82.042 61.355 140.542 61.355zm0-56.718c-36.622 0-65.694-14.15-87.215-42.45-21.521-28.3-32.282-67.181-32.282-116.646 0-49.228 10.761-87.99 32.282-116.29 21.521-28.3 50.593-42.45 87.215-42.45 36.146 0 64.98 14.15 86.5 42.45 21.522 28.3 32.282 67.062 32.282 116.29 0 49.465-10.76 88.347-32.282 116.646-21.52 28.3-50.354 42.45-86.5 42.45zm364.552 45.303l67.774-263.258 11.414-57.432h1.784l12.484 57.789L4465.3 784.66h63.493l66.347-408.442h-52.436l-39.237 248.632-8.204 57.789-12.842-57.789-73.48-248.632h-60.997l-65.277 248.632-9.988 57.789-9.988-57.789-38.88-248.632h-63.137l66.347 408.442h66.347zm-1204.592 766.23c33.53 0 71.578-7.847 114.145-23.543v-67.063c-39.475 22.593-78.475 33.889-116.999 33.889-29.25 0-55.765-9.691-79.545-29.073-23.78-19.382-43.4-48.573-58.856-87.574-15.458-39.001-23.186-81.57-23.186-127.705 0-45.185 7.431-87.099 22.294-125.744 14.863-38.644 34.422-68.014 58.678-88.109s51.128-30.143 80.615-30.143c38.762 0 77.762 11.415 117 34.245v-67.42c-42.568-15.933-80.616-23.9-114.146-23.9-44.945 0-86.085 12.07-123.42 36.207-37.335 24.138-66.228 59.632-86.68 106.48-20.45 46.85-30.676 99.644-30.676 158.384 0 59.215 10.344 112.306 31.033 159.274 20.69 46.968 49.701 82.343 87.036 106.124 37.335 23.781 78.238 35.672 122.707 35.672zm324.958-17.122v-237.217c23.067-40.19 46.847-70.274 71.34-90.25 24.494-19.976 49.345-29.964 74.552-29.964 6.659 0 15.695.95 27.11 2.853v93.46h65.633v-147.324c-24.731-7.61-49.463-11.415-74.194-11.415-33.53 0-64.029 8.323-91.495 24.97-27.466 16.647-51.782 41.855-72.946 75.625v-89.18h-68.13v408.442h68.13zm460.149 11.415c24.256 0 50.95-8.68 80.08-26.04 29.131-17.36 54.16-43.044 75.087-77.051 3.091 38.763 7.253 69.322 12.484 91.676h70.984c-10.225-30.677-15.338-70.63-15.338-119.857v-288.585h-68.13c-7.848-.713-13.793-1.308-17.836-1.784-25.92-2.853-45.42-4.28-58.5-4.28-44.468 0-81.863 10.82-112.183 32.461-30.32 21.641-54.457 51.01-72.411 88.11-17.954 37.098-26.931 79.31-26.931 126.634 0 60.167 13.555 104.995 40.664 134.483 27.11 29.489 57.786 44.233 92.03 44.233zm16.052-65.28c-19.5 0-36.86-10.284-52.08-30.855-15.219-20.571-22.828-51.07-22.828-91.498 0-55.886 13.97-100.06 41.912-132.521 27.942-32.462 62.84-48.692 104.693-48.692 20.69 0 43.162 3.21 67.418 9.631v175.149c-20.452 36.385-43.459 65.28-69.023 86.682-25.564 21.403-48.928 32.105-70.092 32.105zm485.475 65.28c59.926 0 103.444-11.415 130.554-34.245s40.664-51.962 40.664-87.396c0-26.872-8.442-49.346-25.326-67.42-17.122-18.073-46.847-34.839-89.176-50.297l-46.015-16.765c-31.39-11.415-54.1-21.522-68.13-30.321-14.03-8.8-21.046-20.571-21.046-35.316 0-14.982 8.085-27.526 24.256-37.633 16.17-10.107 38.643-15.16 67.417-15.16 39.475 0 81.685 7.966 126.63 23.9v-61.713c-39-12.604-80.258-18.906-123.776-18.906-58.5 0-100.71 10.82-126.63 32.461-25.921 21.641-38.881 49.346-38.881 83.116 0 23.78 6.658 43.995 19.975 60.642 13.317 16.884 45.302 35.196 95.954 54.934l47.085 18.55 23.542 9.631c28.061 11.415 45.658 21.047 52.793 28.894 6.896 7.848 10.344 17.242 10.344 28.181 0 16.647-7.55 30.5-22.65 41.558-15.101 11.058-39.773 16.587-74.017 16.587-21.402 0-47.323-3.627-77.762-10.88-30.438-7.253-59.332-19.798-86.679-37.634v72.414c55.17 21.879 108.795 32.818 160.874 32.818zm352.068-11.415v-238.287c17.835-34.008 40.426-62.367 67.773-85.078 27.348-22.71 53.03-34.066 77.049-34.066 11.89 0 22.888 4.043 32.995 12.128 10.107 8.086 17.062 18.371 20.867 30.856 3.805 12.485 5.707 38.466 5.707 77.943v236.504H5000v-229.657c-.023-44.662-1.152-74.174-3.389-88.535-2.259-14.507-6.48-28.181-12.663-41.023-7.372-16.885-20.63-31.213-39.772-42.984-19.143-11.772-40.367-17.658-63.672-17.658-27.585 0-55.111 8.918-82.577 26.754-27.467 17.836-50.95 42.45-70.45 73.84V943.402h-68.13v590.368h68.13zm-1731.446 749.109c62.067 0 107.725-11.534 136.975-34.602 29.25-23.068 51.841-56.005 67.774-98.811 15.933-42.806 23.9-92.509 23.9-149.108 0-59.691-7.551-111.356-22.651-154.994-15.101-43.639-37.692-76.22-67.774-97.741-30.083-21.522-76.157-32.283-138.224-32.283h-134.477v567.539h134.477zm-11.414-62.426h-49.225v-448.038h55.289c45.658 0 78.475 7.848 98.45 23.543 19.976 15.696 35.314 38.169 46.015 67.42 10.702 29.25 16.052 71.106 16.052 125.565 0 55.41-4.578 98.93-13.733 130.559-9.155 31.629-24.375 56.361-45.658 74.197-21.284 17.836-57.014 26.754-107.19 26.754zm352.781 62.426l38.167-124.852h199.755l38.88 124.852h77.763l-175.856-567.54H3441.2l-174.785 567.54h70.984zm221.514-181.57h-165.511l66.703-215.458 14.269-57.075 16.051 57.075 68.488 215.458zM3928.459 2300c64.444 0 113.61-27.11 147.497-81.332 33.887-54.22 50.83-127.467 50.83-219.738 0-91.796-16.943-164.863-50.83-219.203s-83.053-81.51-147.497-81.51c-64.445 0-113.67 27.17-147.676 81.51-34.006 54.34-51.009 127.407-51.009 219.203 0 92.27 17.003 165.517 51.009 219.738 34.006 54.221 83.231 81.332 147.676 81.332zm0-57.075c-35.67 0-65.396-20.154-89.176-60.464-23.78-40.309-35.67-101.486-35.67-183.531 0-81.808 11.89-142.925 35.67-183.353s53.505-60.642 89.176-60.642c35.432 0 65.039 20.214 88.82 60.642 23.78 40.428 35.67 101.545 35.67 183.353 0 82.045-11.89 143.222-35.67 183.531-23.781 40.31-53.388 60.464-88.82 60.464z" fill="#95D6D0"/></g></svg>